<svg width="128" height="128" xmlns="http://www.w3.org/2000/svg">
 <!-- Created with Method Draw - http://github.com/duopixel/Method-Draw/ -->

 <g>
  <title>background</title>
  <rect fill="#333333" id="canvas_background" height="130" width="130" y="-1" x="-1"/>
  <g display="none" overflow="visible" y="0" x="0" height="100%" width="100%" id="canvasGrid">
   <rect fill="url(#gridpattern)" stroke-width="0" y="1" x="1" height="600" width="800"/>
  </g>
 </g>
 <g>
  <title>Layer 1</title>
  <ellipse stroke="#000" ry="17.84273" rx="18.32759" id="svg_38" cy="38.11861" cx="62.73336" stroke-opacity="null" stroke-width="1.5" fill="#ffffff"/>
  <text stroke="#000" transform="matrix(0.23969478957330137,0,0,0.23969478957330137,294.2914727074052,117.23564401646878) " font-weight="bold" xml:space="preserve" text-anchor="start" font-family="'League Gothic', sans-serif" font-size="150" id="svg_3" y="-124.79647" x="-1041.99457" stroke-width="0" fill="#ffffff">DCU</text>
  <text stroke="#000" transform="matrix(0.20000530291098553,0,0,0.20000530291098553,284.37458775287155,145.2412174178841) " xml:space="preserve" text-anchor="start" font-family="'League Gothic', sans-serif" font-size="150" id="svg_4" y="-194.9935" x="-1214.58459" stroke-width="0" fill="#ffffff">Tools</text>
  <text style="cursor: move;" stroke="#000" transform="matrix(0.19005096287737364,0,0,0.19005096287737364,413.93660990574125,290.54071571394445) " xml:space="preserve" text-anchor="start" font-family="'League Gothic', sans-serif" font-size="40" id="svg_5" y="-935.47913" x="-1660.41503" stroke-width="0" fill="#ffffff">by: Pasini</text>
  <g stroke="null" id="svg_46">
   <path stroke="null" fill="#000000" id="svg_44" d="m62.72938,30.61626c-5.08763,0 -8.4976,5.31267 -6.34857,9.94951c1.61615,3.48717 5.81049,5.02415 9.29673,3.40828c3.48723,-1.61604 5.02415,-5.81049 3.40834,-9.29667c-1.18532,-2.55753 -3.71566,-4.06113 -6.3565,-4.06113zm-2.58332,8.13463c0.18233,0.18228 0.18233,0.4778 0,0.66014c-0.18233,0.18228 -0.4778,0.18222 -0.66008,0l-1.45938,-1.45938c-0.18216,-0.18222 -0.18228,-0.4778 0,-0.66014l1.45938,-1.45938c0.18233,-0.18222 0.47786,-0.18216 0.66008,0c0.18233,0.18233 0.18233,0.47786 0,0.66014l-1.12931,1.12925l1.12931,1.12937zm4.15653,-2.87639l-2.33388,3.9676c-0.13064,0.22213 -0.41671,0.29634 -0.63902,0.16565c-0.22219,-0.1307 -0.2964,-0.41683 -0.16565,-0.63902l2.33388,-3.9676c0.1307,-0.22219 0.41689,-0.29629 0.63902,-0.16565c0.22219,0.1307 0.2964,0.41677 0.16565,0.63902zm3.07921,2.07715l-1.45938,1.45943c-0.18233,0.18228 -0.4778,0.18222 -0.66008,0c-0.18233,-0.18228 -0.18233,-0.4778 0,-0.66014l1.12931,-1.12931l-1.12931,-1.12925c-0.18233,-0.18228 -0.18233,-0.4778 0,-0.66014c0.18228,-0.18222 0.4778,-0.18222 0.66008,0l1.45938,1.45938c0.18216,0.1821 0.18228,0.47769 0,0.66002z"/>
   <path stroke="null" fill="#000000" id="svg_45" d="m75.68231,42.30627l-2.19385,-1.71482c0.53335,-1.93228 0.53434,-4.00395 0,-5.93973l2.19385,-1.71482c0.18321,-0.14295 0.2328,-0.39968 0.11669,-0.60097l-1.95521,-3.38646c-0.11669,-0.20188 -0.3635,-0.28648 -0.5788,-0.19955l-2.58536,1.04325c-1.4225,-1.44526 -3.18808,-2.46575 -5.14037,-2.97103l-0.38859,-2.7569c-0.03209,-0.23047 -0.2293,-0.40143 -0.46211,-0.40143l-3.91042,0c-0.2328,0 -0.43002,0.17096 -0.46211,0.40143l-0.38859,2.7569c-1.95229,0.50529 -3.71787,1.52578 -5.14037,2.97103l-2.58477,-1.04325c-0.21588,-0.08694 -0.46269,-0.00175 -0.57939,0.19955l-1.95521,3.38646c-0.11611,0.2013 -0.06652,0.45802 0.11669,0.60097l2.19385,1.71482c-0.53335,1.93228 -0.53434,4.00395 0,5.93973l-2.19385,1.71482c-0.18321,0.14295 -0.2328,0.39968 -0.11669,0.60097l1.95521,3.38646c0.11669,0.2013 0.3635,0.28648 0.57939,0.19955l2.58477,-1.04325c1.4225,1.44526 3.18808,2.46575 5.14037,2.97103l0.38859,2.7569c0.03209,0.23047 0.2293,0.40143 0.46211,0.40143l3.91042,0c0.2328,0 0.43002,-0.17096 0.46211,-0.40143l0.38859,-2.7569c1.95229,-0.50529 3.71787,-1.52578 5.14037,-2.97103l2.58536,1.04325c0.2153,0.08694 0.46211,0.00175 0.5788,-0.19955l1.95521,-3.38646c0.11611,-0.2013 0.06652,-0.45802 -0.11669,-0.60097zm-9.61221,2.51487c-1.91174,0.88606 -4.06498,0.96949 -6.06313,0.23701c-4.13459,-1.51574 -6.22668,-6.02632 -4.71018,-10.16289c1.53184,-4.17841 6.09201,-6.21804 10.16791,-4.72395c1.99004,0.72963 3.57685,2.19046 4.46816,4.11352c1.83326,3.95552 0.09172,8.70345 -3.86275,10.53631z"/>
  </g>
  <line stroke-linecap="undefined" stroke-linejoin="undefined" id="svg_47" y2="12.12931" x2="119.68963" y1="12.12931" x1="8.31036" fill-opacity="null" stroke-opacity="null" stroke-width="1.5" stroke="#000" fill="none"/>
  <line stroke-linecap="undefined" stroke-linejoin="undefined" id="svg_48" y2="116.95685" x2="119.68963" y1="116.95685" x1="8.31036" fill-opacity="null" stroke-opacity="null" stroke-width="1.5" stroke="#000" fill="none"/>
 </g>
</svg>